<svg id="Layer_1" data-name="Layer 1" xmlns="http://www.w3.org/2000/svg" xmlns:xlink="http://www.w3.org/1999/xlink" viewBox="0 0 2829.05 803.04"><defs><style>.cls-1{fill:#fff;}.cls-2{fill:url(#linear-gradient);}.cls-3{fill:url(#Degradado_sin_nombre_18);}.cls-4,.cls-5{opacity:0.6;}.cls-4{fill:url(#linear-gradient-2);}.cls-5{fill:url(#linear-gradient-3);}</style><linearGradient id="linear-gradient" x1="545.78" y1="208.56" x2="96.7" y2="592.69" gradientUnits="userSpaceOnUse"><stop offset="0" stop-color="#7d5fff"/><stop offset="0.09" stop-color="#8061fe" stop-opacity="0.97"/><stop offset="0.22" stop-color="#8966fc" stop-opacity="0.89"/><stop offset="0.37" stop-color="#986ff9" stop-opacity="0.77"/><stop offset="0.55" stop-color="#ac7cf4" stop-opacity="0.59"/><stop offset="0.74" stop-color="#c68bee" stop-opacity="0.36"/><stop offset="0.94" stop-color="#e59ee6" stop-opacity="0.08"/><stop offset="1" stop-color="#eea4e4" stop-opacity="0"/></linearGradient><linearGradient id="Degradado_sin_nombre_18" x1="309.37" y1="67.5" x2="309.37" y2="709.39" gradientUnits="userSpaceOnUse"><stop offset="0" stop-color="#6400ff"/><stop offset="0.13" stop-color="#6b02fb"/><stop offset="0.33" stop-color="#7f09f0"/><stop offset="0.56" stop-color="#a014dd"/><stop offset="0.82" stop-color="#cd23c4"/><stop offset="1" stop-color="#ef2fb1"/></linearGradient><linearGradient id="linear-gradient-2" x1="148.98" y1="256.15" x2="148.98" y2="71.43" gradientUnits="userSpaceOnUse"><stop offset="0" stop-opacity="0"/><stop offset="1"/></linearGradient><linearGradient id="linear-gradient-3" x1="467.64" y1="543.07" x2="467.64" y2="727.86" xlink:href="#linear-gradient-2"/></defs><rect width="2829.05" height="803.04"/><path class="cls-1" d="M749.72,113.11a40.66,40.66,0,0,1,30.34,12.94,42.84,42.84,0,0,1,12.5,30.8,42.68,42.68,0,0,1-42.84,42.83q-18.74,0-31.68-12.5a40.55,40.55,0,0,1-12.94-30.33q0-17.85,12.94-30.8T749.72,113.11ZM715.81,705.68V322.83q0-16.93,5.36-22.76t23.2-5.79h9.81q17,0,22.76,5.79t5.8,22.76V705.68q0,17.87-5.8,23.2t-22.76,5.36h-9.81q-17.86,0-23.2-5.36T715.81,705.68Z"/><path class="cls-1" d="M965.68,443.31V705.68q0,17.87-5.36,23.2t-23.2,5.36H927.3q-17,0-22.75-5.36t-5.8-23.2V439.74q0-154.38,152.6-154.39,7.13,0,28.56,1.79,16.93,1.78,21.86,8t4.91,23.2v8.92q0,17-5.35,21.42c-3.57,3-11,3.57-22.32,1.79-3.57,0-7.58-.14-12-.45s-7.89-.59-10.26-.89a49.89,49.89,0,0,0-5.36-.45q-47.31,0-66.48,21.87T965.68,443.31Z"/><path class="cls-1" d="M1241.43,443.31V705.68q0,17.87-5.36,23.2t-23.2,5.36h-9.82q-17,0-22.75-5.36t-5.8-23.2V439.74q0-154.38,152.6-154.39,7.13,0,28.56,1.79,16.93,1.78,21.86,8t4.91,23.2v8.92q0,17-5.35,21.42c-3.57,3-11,3.57-22.32,1.79-3.57,0-7.58-.14-12-.45s-7.89-.59-10.26-.89a49.89,49.89,0,0,0-5.36-.45q-47.31,0-66.48,21.87T1241.43,443.31Z"/><path class="cls-1" d="M1812.57,463.83q0,31.26-2.68,48.19-1.8,17-8,22.32t-24.1,5.35H1508.25v26.78q0,60.69,32.58,87t106.64,26.33a442.63,442.63,0,0,0,121.37-17q16.07-4.44,22.31.9t6.25,22.31v8q0,14.28-4.91,20.52t-22.76,11.61q-54.45,16.93-122.26,16.95-107.09,0-156.62-44.18t-49.53-142.33v-83q0-188.28,188.3-188.3,89.24,0,136.1,45.51T1812.57,463.83ZM1508.25,454v29.45h241V454q0-108.87-120.48-108.88T1508.25,454Z"/><path class="cls-1" d="M1975.87,452.23V705.68q0,17.87-5.35,23.2t-23.2,5.36h-9.82q-17,0-22.76-5.36t-5.8-23.2V452.23q0-166.86,186.51-166.88,95.49,0,140.57,41.5t45.06,125.38V705.68q0,17.87-5.35,23.2t-23.21,5.36h-10.71c-11.91,0-19.62-1.79-23.19-5.36s-5.36-11.29-5.36-23.2V452.23q0-56.22-26.33-79.86t-91.48-23.66q-65.13,0-92.36,24.1T1975.87,452.23Z"/><path class="cls-1" d="M2768.33,138.1V556.65q0,186.52-195.44,186.51-99.06,0-147.25-46.4t-48.19-140.11v-83q0-188.28,184.73-188.3,103.52,0,139.22,65.15V138.1q0-17.84,5.36-23.2t23.2-5.36h9.82q16.93,0,22.75,5.36T2768.33,138.1ZM2444.39,472.76v83q0,66.91,28.56,95.48t99.94,28.56q70.5,0,99.51-28.56t29-95.48v-83q0-66.93-29-95.49t-99.51-28.56q-70.5,0-99.5,28.56T2444.39,472.76Z"/><path class="cls-2" d="M80.34,629.15a146.15,146.15,0,0,1-9.09-84.46c3.94-20.7,13.18-40.88,27.46-60,2.93-3.85,5.89-7.41,9-10.8,13.37-14.48,30.35-27,50.41-37.27L430.82,297.46c2.58-1.23,5.23-2.65,7.83-4.13,21.38-11.87,36.63-26.94,45.17-44.73,1.26-2.7,2.31-5.19,3.25-7.69L496,217.24l-44,17.31a15.16,15.16,0,1,1-11.08-28.22L532,170.54a15.27,15.27,0,0,1,19.73,8.61l35.8,91.09a15.18,15.18,0,0,1-14.11,20.7h0a15.08,15.08,0,0,1-14.11-9.61L543,239.8l-10.7,25.62a103.77,103.77,0,0,1-18,29.32c-5.53,6.12-10.22,11-14.71,15.37a202.78,202.78,0,0,1-20.38,17.5,172,172,0,0,1-23.3,14.66l-272,140.79A153.29,153.29,0,0,0,151.39,505c-10.81,9.74-18.92,20.65-24.1,32.4-9.74,22.32-10.81,44.14-3.18,64.88a91.61,91.61,0,0,0,4.13,9.43Z"/><path class="cls-3" d="M555.54,544.38a14.12,14.12,0,0,0-.28-1.8c-4.21-22.42-14.16-44.16-29.49-64.62a162.55,162.55,0,0,0-31-31.12,211.6,211.6,0,0,0-32.2-20.23L389.46,389.3l-81.7-41.69-118-60.18c-18.15-8.88-31.92-19.72-41.13-32.31a76.38,76.38,0,0,1-6.8-11.4c-8.6-17.93-10.51-35.45-5.68-52.09s16.13-30.79,33.77-42.08c17-10.9,38.83-16.41,65-16.41H521.4A36.63,36.63,0,0,0,558,96.51h0A36.64,36.64,0,0,0,521.4,59.87H234.94c-31.74,0-59.67,5.46-82.82,16.24s-42.31,25-56.69,42L93,121a147.22,147.22,0,0,0-27.7,55.23,139.22,139.22,0,0,0,2.36,78.88,163.46,163.46,0,0,0,25.17,47.09c14.72,19.55,35.46,36.41,61.58,50l71.64,37.08,81.7,42.31L420.7,490.1l5.67,2.92c25.79,13.26,43.15,29.72,51.52,48.88,8.54,19.56,9.56,38.61,3,56.47-6.35,17.31-18.76,32.09-36.86,44-17.86,11.8-39.61,17.81-64.72,17.81H97.35a36.64,36.64,0,0,0-36.64,36.64h0A36.63,36.63,0,0,0,97.35,733.5H379.29c32.3,0,60.73-5.73,84.44-17.08s43.49-26.41,58.5-44.67c3.09-3.71,5.95-7.58,8.65-11.52a154.2,154.2,0,0,0,22.36-49.78A156.19,156.19,0,0,0,555.54,544.38Z"/><path class="cls-4" d="M235,133.17c-26.17,0-48,5.51-65,16.38-17.65,11.32-29,25.47-33.8,42.07s-2.9,34.18,5.7,52.11a74.06,74.06,0,0,0,6.8,11.38h-81a135.58,135.58,0,0,1-3.95-14.58A48.68,48.68,0,0,1,63,230.39c.48-54,45.12-97.22,99.13-97.22Z"/><path class="cls-5" d="M555.91,553.49c-1.46,59.56-51,106.76-110.57,106.76h-66c25.11,0,46.86-6,64.72-17.82,18.1-12,30.51-26.74,36.86-44,6.58-17.86,5.57-36.91-3-56.46-8.38-19.16-25.74-35.63-51.53-48.89l-5.67-2.92,74-43.26a162.55,162.55,0,0,1,31,31.12c15.34,20.46,25.28,42.2,29.5,64.62.11.56.22,1.18.28,1.8A56.85,56.85,0,0,1,555.91,553.49Z"/></svg>